<svg xmlns="http://www.w3.org/2000/svg" xmlns:xlink="http://www.w3.org/1999/xlink" width="500" zoomAndPan="magnify" viewBox="0 0 375 374.999991" height="500" preserveAspectRatio="xMidYMid meet" version="1.0"><defs><clipPath id="5053a48b70"><path d="M 112.5 119.25 L 262 119.25 L 262 255.75 L 112.5 255.75 Z M 112.5 119.25 " clip-rule="nonzero"/></clipPath></defs><path fill="#ffd706" d="M 248.496094 172.070312 L 249.65625 170.777344 C 248.007812 169.902344 245.167969 170.882812 244.25 170.777344 C 242.09375 170.519531 245.304688 169.265625 245.011719 168.46875 C 244.351562 166.660156 242.523438 167.917969 242.011719 167.621094 C 241.636719 167.402344 241.875 166.15625 240.640625 166.132812 C 240.425781 166.132812 238.632812 169.246094 237.285156 166.386719 C 237.007812 165.804688 239.183594 165.066406 237.8125 163.8125 C 237.351562 163.394531 233.425781 162.964844 232.988281 163.089844 C 231.054688 163.664062 232.253906 166.015625 232.125 166.132812 C 231.074219 167.074219 230.992188 163.976562 230.066406 165.109375 C 229.871094 165.347656 230.199219 167.53125 230.054688 168.195312 C 226.886719 165.140625 227.519531 167.355469 226.09375 168.222656 C 225.269531 168.722656 222.734375 169.886719 221.660156 170.394531 C 220.976562 170.710938 220.265625 170.152344 219.882812 170.367188 C 219.050781 170.828125 217.71875 172.910156 218.179688 173.996094 L 216.660156 175.921875 C 215.734375 174.128906 216.503906 169.015625 215.410156 168.148438 C 213.664062 166.757812 209.496094 169.5 207.371094 169.738281 C 207.316406 168.882812 207.445312 164.894531 207.300781 164.65625 C 207.214844 164.519531 205.054688 163.597656 204.402344 163.199219 C 203.945312 162.917969 203.835938 162.324219 203.605469 162.179688 C 203.03125 161.816406 201.851562 162.132812 201.40625 161.539062 C 199.742188 159.3125 203.210938 158.023438 204.792969 160.46875 C 204.675781 159.679688 204.445312 155.511719 204.28125 155.3125 C 204.132812 155.132812 202.175781 156.417969 201.703125 155.050781 C 201.621094 154.804688 203.640625 155.222656 201.699219 152.738281 L 203.253906 152.738281 C 202.570312 150.945312 201.933594 150.449219 202.710938 148.402344 L 200.164062 146.546875 L 199.652344 148.601562 C 197.433594 145.925781 198.78125 146.207031 199.050781 143.855469 C 199.085938 143.519531 198.054688 137.503906 197.863281 137.226562 C 197.453125 136.628906 194.992188 136.90625 195.519531 134.171875 C 194.5625 133.875 193.929688 135.382812 193.21875 135.207031 C 193.101562 135.175781 191.996094 133.8125 191.605469 133.414062 C 191.308594 133.105469 191.503906 132.464844 191.140625 132.625 C 189.71875 134.914062 188.804688 133.535156 187.039062 133.632812 C 183.230469 133.84375 184.6875 134.785156 183.546875 136.882812 C 182.933594 138.015625 181.753906 138.660156 181.597656 140.144531 C 181.417969 141.851562 182.507812 142.054688 182.628906 143.445312 L 180.566406 143.445312 C 180.039062 143.949219 182.328125 146.847656 181.597656 147.566406 C 179.949219 149.183594 179.25 144.324219 179.042969 144.207031 C 178.9375 144.144531 176.820312 143.59375 176.699219 143.601562 C 175.453125 143.726562 175.640625 145.679688 175.238281 146.371094 C 173.722656 148.957031 172.410156 151.769531 171.5 154.796875 C 171.261719 155.574219 171.761719 156.660156 171.585938 156.886719 C 171.164062 157.417969 169.875 157.089844 169.710938 157.6875 C 169.578125 158.175781 169.894531 159.019531 169.722656 159.644531 C 169.5 160.433594 168.972656 160.90625 168.789062 161.730469 C 168.640625 162.414062 169.664062 163.9375 168.1875 164.828125 C 167.191406 165.425781 164.058594 165.640625 163.296875 164.554688 C 162.957031 164.074219 163.113281 163.117188 163.035156 163.03125 C 162.886719 162.871094 161.371094 163.5625 160.71875 163.5625 C 160.003906 163.5625 158.765625 162.871094 158.472656 163.074219 C 158.257812 163.230469 157.753906 165.015625 156.855469 165.390625 C 156.367188 165.589844 155.824219 164.355469 153.976562 165.007812 C 153.4375 165.195312 150.882812 167.390625 150.539062 167.554688 C 150.058594 167.792969 148.96875 166.941406 147.929688 167.617188 C 147.128906 168.132812 147.210938 169.566406 147.027344 169.707031 C 146.960938 169.753906 146.285156 169.28125 145.890625 169.40625 C 145.242188 169.609375 143.070312 170.1875 142.9375 170.265625 C 142.738281 170.371094 143.742188 174.238281 140.363281 172.046875 L 141.902344 170.761719 C 140.4375 170.980469 139.363281 171.097656 138.816406 172.570312 C 138.816406 172.6875 141.550781 173.996094 139.582031 174.367188 C 138.363281 174.589844 138.191406 172.019531 137.023438 172.308594 C 136.207031 172.507812 136.3125 174.292969 136.234375 174.371094 C 136.15625 174.453125 134.960938 173.777344 133.988281 173.855469 C 132.359375 173.988281 128.636719 176.070312 127.433594 177.148438 C 126.238281 178.210938 126.082031 180.546875 123.898438 181.316406 C 124.636719 182.804688 124.769531 183.261719 126.445312 182.613281 L 126.199219 184.679688 C 128.179688 183.164062 129.363281 183.941406 131.59375 184.160156 C 132.316406 184.832031 128.4375 187.460938 128.476562 189.03125 C 128.480469 189.296875 129.363281 189.3125 129.507812 189.695312 C 129.820312 190.53125 130.1875 193.90625 131.339844 193.910156 C 131.574219 193.910156 134.359375 191.546875 135.472656 191.554688 C 136.167969 191.558594 136.707031 192.347656 137.023438 192.414062 C 137.140625 192.441406 137.453125 190.707031 138.816406 191.382812 L 138.816406 192.933594 C 138.820312 192.933594 142.425781 192.414062 142.425781 192.414062 C 143.222656 193.847656 140.914062 196.382812 140.945312 196.65625 C 141.125 198.246094 143.546875 201.722656 144.96875 202 C 148.65625 202.722656 149.777344 197.007812 153.433594 198.125 C 153.828125 198.246094 153.710938 198.949219 154.105469 199.066406 C 154.605469 199.214844 157.167969 199.078125 157.285156 198.355469 C 157.496094 197.09375 155.421875 196.488281 159.433594 196.027344 C 156.878906 199.9375 161.566406 198.257812 160.460938 194.480469 C 159.679688 194.234375 160.105469 196.460938 158.921875 195.503906 C 158.757812 195.371094 158.722656 193.410156 158.402344 192.933594 C 161.367188 192.199219 161.269531 195.472656 161.820312 197.59375 C 161.136719 198.765625 159 201.238281 158.644531 202.242188 C 158.238281 203.402344 157.929688 206.792969 157.917969 208.136719 C 157.914062 208.871094 157.546875 209.652344 157.589844 210.222656 C 157.632812 210.738281 158.601562 211.199219 158.402344 211.480469 C 158.308594 211.605469 156.148438 212.035156 155.464844 212.671875 C 154.664062 213.429688 154.582031 214.960938 154.136719 215.460938 C 152.910156 216.828125 147.761719 221.433594 146.1875 222.191406 C 145.507812 222.523438 144.339844 222.390625 143.777344 222.773438 C 143.570312 222.914062 140.867188 226.398438 140.792969 226.636719 C 140.171875 228.574219 140.6875 230.25 140.347656 231.753906 C 140.257812 232.144531 139.417969 232.074219 139.328125 232.453125 C 138.726562 234.957031 140.1875 235.515625 142.414062 235.203125 C 141.203125 237.691406 142.382812 240.769531 145.027344 241.652344 C 146.875 242.273438 148.113281 239.964844 148.425781 239.882812 C 149.660156 239.558594 151.914062 240.871094 153.234375 239.578125 C 154.46875 238.367188 153.234375 235.882812 155.210938 235.226562 C 155.734375 235.054688 156.671875 235.316406 156.859375 235.195312 C 157.105469 235.042969 155.585938 232.425781 157.636719 231.597656 C 158.949219 231.066406 158.585938 234.152344 158.402344 234.683594 C 160.234375 234.730469 162.476562 234.941406 163.023438 232.867188 C 163.417969 231.375 162.277344 226.210938 165.125 227.710938 C 165.589844 227.957031 165.03125 230.386719 167.171875 230.8125 C 167.441406 230.871094 169.152344 230.121094 169.226562 230.039062 C 170.054688 229.082031 168.175781 228.925781 168.191406 228.769531 C 168.328125 227.136719 169.945312 227.726562 170.765625 227.199219 C 171.191406 226.925781 171.140625 225.96875 171.640625 225.886719 C 172.113281 225.816406 172.886719 226.480469 173.378906 226.195312 C 173.691406 226.015625 173.828125 225.175781 174.160156 224.933594 C 176.894531 222.953125 179.480469 220.828125 182.289062 219.117188 C 183.085938 218.632812 182.84375 217.78125 183.898438 217.640625 C 186.839844 217.230469 186.777344 218.753906 187.496094 218.753906 C 188.523438 218.753906 190.601562 217.664062 190.8125 217.742188 C 190.863281 217.761719 190.878906 218.359375 191.261719 218.695312 C 191.671875 219.050781 192.480469 219.25 192.726562 219.734375 C 193.089844 220.453125 192.261719 221.316406 192.488281 221.714844 C 192.554688 221.835938 193.480469 222.046875 193.929688 222.621094 C 194.976562 223.953125 193.546875 224.972656 196.554688 223.863281 C 196.515625 224.851562 196.695312 225.804688 197.042969 226.734375 C 197.710938 228.519531 199.347656 230.476562 199.488281 232.457031 C 199.5625 233.574219 198.828125 234.972656 199.140625 236.234375 L 200.675781 234.691406 C 199.984375 238.828125 204.027344 236.546875 205.246094 237.332031 C 205.585938 237.546875 205.554688 238.902344 205.902344 239.242188 C 205.96875 239.308594 207.726562 239.289062 207.796875 239.226562 C 208.089844 238.976562 207.558594 238.078125 208.40625 238.292969 C 208.078125 240.792969 210.980469 236.964844 212.015625 236.230469 C 211.878906 237.425781 212.035156 237.628906 213.050781 238.027344 L 212.023438 239.3125 C 214.105469 238.160156 215.296875 240.234375 216.957031 240.34375 C 218.695312 240.457031 219.808594 238.929688 221.183594 238.414062 C 222.105469 238.0625 222.453125 239.402344 223.476562 237.632812 C 224.980469 235.03125 223.246094 234.140625 222.847656 231.585938 L 224.398438 231.332031 C 223.480469 231.027344 222.472656 228.703125 222.230469 228.550781 C 222.148438 228.5 220.152344 229.261719 220.285156 228.238281 C 220.367188 227.632812 221.984375 227.773438 221.816406 226.957031 C 219.273438 226.726562 219.769531 224.199219 218.945312 222.867188 C 217.652344 220.777344 213.265625 218.269531 211.507812 216.378906 C 214.539062 214.742188 212 215.289062 212.007812 214.800781 C 212.015625 214.28125 212.785156 213.597656 212.320312 213.015625 C 211.535156 212.03125 209.96875 213.113281 212.023438 209.949219 C 210.492188 209.898438 208.425781 209.078125 208.976562 207.171875 C 209.160156 206.539062 210.214844 206.460938 210.511719 205.984375 C 211.003906 205.1875 210.792969 203.625 211.109375 203.320312 C 211.316406 203.121094 212.125 203.367188 212.394531 203.128906 C 212.738281 202.820312 212.578125 201.785156 213.28125 201.144531 C 216.03125 198.632812 219.140625 199.464844 220.648438 198.761719 C 221.75 198.242188 221.96875 196.691406 223.332031 196.246094 C 226.128906 195.328125 230 197.238281 229.558594 192.421875 C 230.46875 192.175781 229.792969 193.574219 230.320312 193.449219 C 230.535156 193.398438 233.300781 191.210938 233.878906 190.800781 C 234.421875 190.417969 234.613281 189.578125 234.800781 189.457031 C 234.925781 189.378906 236.859375 189.90625 237.683594 189.207031 C 238.152344 188.8125 238.019531 187.652344 238.421875 187.363281 C 238.777344 187.109375 240.015625 187.203125 240.753906 186.871094 C 241.417969 186.566406 242.980469 185.363281 243.230469 185.375 C 243.671875 185.390625 243.992188 186.390625 244.515625 186.011719 C 245.632812 185.207031 245.753906 183.3125 246.234375 182.273438 C 246.355469 182.015625 247.371094 181.945312 247.519531 180.710938 C 247.722656 179.050781 246.753906 178.441406 246.757812 177.726562 C 246.757812 176.992188 248.035156 176.097656 247.089844 174.894531 L 249.148438 175.40625 L 249.667969 173.59375 L 247.359375 173.863281 C 246.640625 173.832031 247.007812 171.65625 248.507812 172.0625 Z M 165.617188 170.78125 C 165.429688 171.058594 166.414062 171.582031 166.511719 172.125 C 166.765625 173.515625 165.675781 176.464844 164.074219 176.957031 C 165.15625 174.210938 163.988281 175.328125 163.089844 174.078125 C 162.234375 172.886719 162.738281 172.011719 163.042969 170.765625 C 165.179688 172.273438 165.703125 169.511719 167.671875 168.707031 C 168.175781 170.191406 165.703125 170.648438 165.617188 170.777344 Z M 187.074219 142.292969 C 187.003906 142.5 185.871094 142.148438 186.753906 143.449219 L 183.140625 142.933594 C 183.894531 140.957031 186.707031 142.679688 186.757812 140.363281 C 187.769531 140.300781 187.257812 141.753906 187.074219 142.292969 Z M 192.683594 155.316406 C 193.886719 156.164062 193.746094 157.4375 192.429688 157.886719 C 192.355469 157.523438 192.65625 156.992188 192.167969 156.847656 C 191.996094 156.796875 191.039062 159.851562 189.851562 156.34375 C 191.339844 156.921875 191.738281 156.476562 192.6875 155.316406 Z M 196.035156 200.164062 C 195.824219 201.085938 196.878906 200.492188 197.058594 200.675781 C 197.394531 201.019531 197.296875 201.84375 196.300781 201.703125 C 194.421875 201.4375 192.101562 199.488281 189.84375 199.640625 C 190.191406 197.980469 191.800781 198.207031 192.328125 197.921875 C 192.574219 197.785156 192.101562 196.851562 192.933594 197.070312 C 193.054688 197.699219 192.703125 199.277344 192.984375 199.597656 C 193.136719 199.773438 194.957031 199.976562 195.394531 199.816406 C 196.414062 199.4375 195.394531 198.175781 197.335938 199.09375 C 199.5625 200.148438 197.136719 200.007812 196.039062 200.167969 Z M 224.90625 189.324219 L 226.457031 185.722656 C 227.21875 185.535156 226.820312 186.210938 227.152344 186.539062 C 227.5625 186.941406 228.113281 187.09375 228.5 187.527344 C 227.875 188.140625 225.664062 189.8125 224.898438 189.324219 Z M 234.476562 171.257812 C 236.363281 172.636719 234.28125 173.859375 232.742188 172.75 C 232.652344 172.679688 233.230469 171.617188 232.390625 171.300781 L 230.910156 170.863281 C 232.132812 171.136719 233.21875 170.339844 234.476562 171.253906 Z M 234.1875 176.707031 C 233.242188 178.636719 235.769531 177.453125 235.730469 178.503906 C 232.261719 179.277344 230.558594 173.277344 234.554688 174.601562 C 234.644531 174.632812 235.089844 175.898438 236.246094 175.421875 C 236.261719 176.425781 234.683594 175.691406 234.1875 176.707031 Z M 234.1875 176.707031 " fill-opacity="1" fill-rule="nonzero"/><g clip-path="url(#5053a48b70)"><path fill="#ffde59" d="M 260.417969 171.800781 C 260.394531 171.488281 259.890625 170.351562 259.898438 169.742188 C 259.308594 169.425781 259.226562 168.765625 259.648438 167.761719 C 257.761719 167.125 257.363281 166.316406 258.4375 165.328125 C 258.402344 164.25 251.972656 161.15625 250.761719 161.828125 C 250.554688 159.8125 248.507812 159.644531 247.414062 160.980469 C 247.0625 160.863281 246.722656 160.566406 246.375 160.464844 C 244.878906 160.125 243.378906 159.8125 241.847656 159.679688 C 238.792969 159.414062 231.941406 159.230469 229.734375 161.5 C 228.917969 161.617188 227.941406 161.378906 227.132812 161.5 C 224.367188 160.527344 221.429688 160.898438 218.304688 162.636719 C 216.976562 162.058594 215.683594 161.929688 214.414062 162.25 C 211.800781 163.765625 210.714844 162.300781 211.171875 157.859375 L 210.484375 156.34375 C 209.164062 154.246094 209.164062 152.511719 208.402344 150.675781 C 208.9375 149.292969 208.351562 147.875 207.488281 146.746094 L 207.875 145.410156 C 205.800781 142.917969 204.585938 140.652344 203.886719 137.484375 L 203.121094 137.253906 C 203.054688 133.816406 202.390625 132.960938 201.125 134.691406 C 201.375 131.75 200.335938 129.859375 198.003906 129.019531 C 199.824219 127.753906 198.097656 124.304688 196.246094 126.058594 L 195.921875 125.414062 C 195.824219 123.628906 194.058594 123.238281 193.847656 121.804688 C 192.015625 120.390625 190.222656 120.5 188.105469 120.636719 C 186.132812 119.25 184.183594 119.953125 183.792969 122.363281 C 181.976562 121.550781 179.910156 122.613281 179.359375 124.507812 C 176.894531 124.1875 175.609375 125.457031 175.503906 128.328125 L 176.164062 128.496094 C 175.953125 129.757812 176.105469 130.730469 176.609375 131.429688 C 175.15625 131.28125 174.316406 131.675781 174.078125 132.625 C 173.742188 132.59375 173.394531 132.9375 173.039062 133.652344 C 171.863281 136.019531 171.664062 137.375 169.921875 138.804688 C 166.773438 140.417969 165.898438 141.90625 164.71875 144.996094 C 164.851562 146.34375 165.40625 146.816406 164.71875 148.082031 C 163 148.128906 162.308594 149.414062 162.660156 151.9375 L 161.402344 153.878906 C 161.980469 155.574219 162.28125 156.886719 161.078125 158.390625 C 161.03125 158.816406 160.53125 159.234375 160.554688 160.453125 C 159.6875 164.746094 156.886719 165.847656 152.152344 163.757812 C 151.535156 161.765625 147.105469 159.539062 147.035156 162.511719 C 144.289062 162.21875 142.894531 163.199219 142.867188 165.457031 L 141.691406 165.980469 C 143.246094 163.921875 142.25 162.769531 138.710938 162.511719 C 138.527344 162.242188 138.339844 162.011719 138.101562 161.945312 C 136.101562 161.394531 126.613281 163.683594 125.109375 165.683594 C 122.300781 164.550781 119.234375 166.824219 118.710938 169.300781 C 117.1875 169.039062 115.851562 169.175781 115.824219 170.988281 C 113.566406 171.855469 113.667969 173.097656 113.933594 175.191406 C 112.957031 178.09375 112.5 180.988281 112.582031 183.886719 L 114.65625 184.160156 C 115.308594 185.703125 116.039062 187.082031 116.859375 188.292969 C 117.464844 190.585938 118.890625 191.96875 121.015625 192.9375 C 122.101562 194.1875 125.664062 196.046875 127.261719 196.546875 C 127.867188 197.585938 128.28125 197.914062 129.460938 197.863281 C 129.527344 199.835938 130.984375 200.332031 132.761719 200.121094 C 133.289062 201.457031 134.136719 202.132812 135.3125 202.144531 C 137.285156 200.460938 137.585938 202.058594 137.679688 203.84375 C 139.859375 202.839844 141.144531 203.296875 141.535156 205.214844 C 144.070312 206.167969 145.679688 208.121094 143.90625 210.460938 C 143.941406 210.5625 143.921875 210.839844 143.90625 210.976562 C 142.722656 211.085938 140.71875 212.476562 141.820312 213.558594 C 141.472656 214.058594 139.777344 217.445312 139.738281 217.679688 C 137.417969 219.65625 136.496094 221.941406 136.976562 224.546875 L 132.375 230.875 L 132.527344 231.917969 C 131.253906 233.445312 130.703125 235.058594 130.894531 236.753906 C 129.214844 238.003906 129.039062 239.375 128.941406 241.269531 C 128.839844 243.339844 128.554688 249.328125 131.488281 248.421875 C 131.324219 251.800781 132.605469 252.375 135.574219 253.246094 C 136.582031 253.992188 136.859375 254.183594 138.175781 254.273438 C 139.316406 254.960938 140.695312 255.453125 142.300781 255.75 C 142.570312 254.839844 142.949219 254.058594 143.898438 253.757812 C 145.824219 253.078125 146.90625 253.261719 149.097656 253.242188 L 150.160156 252.625 C 153.328125 252.773438 155.046875 251.949219 155.339844 250.144531 C 155.726562 249.917969 156.046875 249.308594 156.378906 249.113281 C 158.359375 249.527344 159.398438 249.011719 159.496094 247.574219 C 161.632812 246.246094 162.828125 244.503906 164.699219 242.929688 C 166.523438 242.972656 175.71875 235.683594 175.589844 235.011719 C 173.429688 233.558594 179.285156 230.429688 181.109375 230.613281 C 181.917969 231.949219 182.855469 232.617188 183.941406 232.621094 C 184.308594 233.015625 184.601562 233.292969 184.980469 233.648438 C 184.433594 235.023438 184.617188 235.136719 186.019531 234.679688 C 186.796875 235.304688 187.417969 235.320312 188.105469 235.707031 C 190.90625 238.746094 193.3125 241.304688 197.464844 241.894531 C 197.675781 242.042969 197.824219 242.304688 197.988281 242.410156 C 198.3125 243.738281 198.6875 244.691406 200.085938 244.207031 C 204.792969 246.539062 209.570312 248.894531 214.421875 251.257812 C 216.054688 252.15625 218.085938 252.441406 220.507812 252.105469 C 220.863281 253.664062 222.753906 253.742188 224 253.242188 C 225.144531 253.425781 228.128906 253.496094 229.359375 253.230469 C 229.734375 253.148438 229.703125 252.40625 230.105469 252.230469 C 230.511719 252.058594 231.121094 252.304688 231.285156 252.210938 C 232.75 253.179688 235.003906 250.1875 233.878906 249.117188 C 234.976562 248.421875 236.519531 246.34375 237.003906 244.996094 C 238.183594 244.707031 237.8125 243.511719 237.003906 242.933594 C 237.082031 242.550781 237.117188 242.484375 237.527344 242.417969 C 238.597656 241.53125 238.039062 235.640625 237.378906 234.710938 C 235.648438 233.984375 234.617188 232.453125 234.289062 230.113281 C 233.496094 228.203125 232.488281 226.976562 231.289062 226.4375 C 231.234375 226.113281 231.363281 225.691406 231.289062 225.40625 L 229.183594 221.777344 C 228.730469 219.042969 227.453125 217.25 225.355469 216.390625 C 224.875 214.726562 223.902344 213.433594 222.441406 212.523438 C 221.570312 211.925781 221.207031 211.457031 220.878906 210.460938 C 218.777344 209.453125 219.074219 208.175781 221.78125 206.640625 C 221.199219 205.015625 224.433594 204.8125 225.648438 204.851562 L 226.082031 204.273438 C 226.734375 203.574219 227.550781 203.644531 228.167969 203.246094 C 229.871094 203.511719 230.738281 203 230.765625 201.699219 C 231.644531 199.953125 233.40625 199.539062 235.160156 199.195312 L 235.449219 198.601562 C 236.128906 200.023438 239.097656 199.148438 238.570312 197.570312 C 239.441406 197.019531 239.710938 195.378906 241.171875 195.511719 C 242.972656 194.792969 244.328125 193.644531 245.238281 192.078125 C 247.386719 192.859375 249.523438 189.894531 250.308594 187.992188 L 251.054688 187.265625 C 251.464844 187.1875 252.148438 187.238281 252.617188 187.265625 C 254.480469 187.085938 255.71875 185.726562 256.332031 183.199219 C 258.554688 182.925781 259.210938 181.03125 259.378906 179.015625 C 259.535156 178.734375 259.804688 178.230469 259.902344 177.984375 C 262.269531 177.222656 262.5 172.910156 260.425781 171.796875 Z M 242.066406 178.996094 C 241.515625 179.507812 239.699219 182.109375 239.09375 182.625 C 238.746094 184.242188 238.054688 184.589844 237.007812 183.65625 C 235.320312 185.050781 234.109375 186.945312 233.136719 187.808594 C 232.503906 188.375 231.292969 188.40625 230.433594 189.308594 C 229.625 190.148438 230.328125 190.832031 230.25 190.863281 C 229.886719 191.042969 228.402344 190.699219 227.503906 190.992188 C 224.050781 192.109375 220.335938 194.292969 216.824219 195.867188 C 215.683594 196.378906 212.789062 196.789062 212.378906 197.019531 C 211.78125 197.339844 212.210938 198.242188 211.960938 198.492188 C 211.734375 198.714844 209.761719 198.703125 208.707031 199.691406 C 207.945312 200.402344 208.039062 201.222656 207.730469 201.546875 C 207.25 202.035156 204.59375 202.410156 204.339844 203.546875 C 204.039062 204.917969 205.191406 209.347656 205.691406 210.824219 C 206.636719 213.589844 209.226562 217.039062 211.011719 219.886719 C 214.132812 224.847656 217.296875 228.167969 219.441406 233.933594 C 219.511719 234.121094 221.535156 234.402344 219.851562 235.476562 C 218.761719 236.183594 210.816406 233.835938 209.324219 233 C 208.96875 232.804688 205.046875 230.15625 204.917969 229.921875 C 204.800781 229.699219 205.3125 229.09375 205.269531 229.046875 C 205.082031 228.882812 201.316406 226.789062 201.089844 226.695312 C 199.742188 226.117188 198.683594 227.164062 197.992188 226.738281 C 197.253906 226.28125 193.902344 222.378906 193.003906 221.867188 C 192.058594 221.332031 190.617188 221.441406 190.300781 221.175781 C 190.089844 221.007812 190.050781 219.851562 189.457031 219.183594 C 187.1875 216.636719 185.476562 217.449219 182.660156 217.136719 C 181.5 217.007812 181.367188 215.617188 179.828125 216.9375 C 177.042969 219.339844 176.796875 218.136719 173.8125 219.75 C 170.949219 221.300781 169.332031 223.789062 167.183594 225.785156 C 165.4375 227.410156 162.957031 229.132812 160.890625 231.433594 C 158.707031 233.855469 151.386719 239.011719 148.390625 240.6875 C 147.152344 241.382812 144.730469 241.929688 144.550781 242.042969 C 144.382812 242.148438 144.402344 242.949219 144.128906 242.96875 C 140.421875 243.242188 142.851562 238.671875 142.855469 236.753906 C 143.84375 234.597656 144.71875 232.335938 145.480469 229.953125 C 147.480469 228.136719 148.738281 226.097656 149.269531 223.820312 L 150.652344 223.34375 C 151.523438 221.4375 151.523438 219.628906 152.792969 217.59375 C 155.441406 213.347656 158.566406 209.480469 159.738281 205.308594 C 160.289062 203.34375 161.515625 201.730469 160.832031 199.613281 C 160.367188 198.136719 159.226562 198.0625 158.441406 197.203125 C 158.074219 196.796875 158.105469 195.699219 157.441406 195.273438 C 157.128906 195.074219 156.3125 195.445312 155.867188 195.253906 C 151.960938 193.558594 143.285156 188.675781 139.992188 188.5 C 139.089844 188.453125 137.882812 189.597656 136.609375 188.796875 C 136.464844 188.355469 137.226562 186.335938 137.136719 186.242188 C 136.964844 186.082031 135.574219 186.113281 135.050781 185.867188 C 133.082031 184.945312 131.058594 183.613281 129.164062 182.519531 C 128.691406 182.246094 127.949219 182.621094 127.519531 182.125 C 127.128906 181.679688 126.023438 178.753906 126.214844 178.511719 C 126.386719 178.289062 130.710938 176.457031 131.394531 176.136719 C 132.0625 175.824219 132.375 174.914062 132.449219 174.882812 L 132.789062 173.75 C 135.164062 174.617188 136.816406 174.667969 138.6875 172.300781 C 140.320312 171.703125 139.855469 172.753906 141.023438 172.804688 C 143.59375 172.917969 144.128906 171.730469 148.589844 172.5625 C 150.71875 172.96875 157.605469 174.308594 159.472656 175.140625 C 159.941406 175.347656 160.253906 176.214844 160.863281 176.328125 C 161.386719 176.425781 162.210938 175.753906 162.53125 175.964844 C 162.859375 176.167969 162.851562 177.765625 163.898438 177.457031 C 164.367188 176.085938 169.789062 172.339844 169.902344 171.945312 C 170.265625 170.625 169.496094 168.957031 169.605469 167.898438 C 169.796875 165.988281 171.800781 159.574219 172.597656 157.207031 C 175.355469 149.066406 178.960938 141.78125 183.234375 134.671875 C 183.429688 134.351562 184.1875 134.289062 184.359375 134.046875 C 184.578125 133.746094 183.46875 130.816406 186.269531 131.03125 C 187.648438 131.132812 187.273438 133.40625 188.128906 134.796875 C 188.390625 135.226562 189.558594 136.222656 190.171875 136.230469 L 189.144531 136.976562 C 190.265625 138.453125 190.5625 140.46875 191.253906 142.019531 C 191.425781 142.410156 192.261719 142.410156 192.292969 142.730469 C 192.34375 143.316406 191.667969 144.367188 191.734375 144.464844 C 191.796875 144.550781 193.527344 144.703125 193.746094 145.058594 C 194.007812 145.480469 193.761719 147.183594 194.035156 148.113281 C 194.96875 151.3125 194.402344 150.15625 194.566406 152.234375 C 194.664062 153.542969 196.429688 155.140625 196.910156 156.601562 C 197.472656 158.304688 197.152344 159.808594 197.472656 161.113281 C 197.570312 161.519531 198.394531 161.441406 198.488281 161.828125 C 198.601562 162.285156 198.75 166.402344 198.832031 167.503906 C 198.898438 168.421875 198.441406 169.785156 198.863281 170.609375 C 198.984375 170.851562 202.199219 174.683594 202.421875 174.851562 C 203.46875 175.683594 208.269531 176.597656 209.703125 176.476562 C 210.691406 176.390625 210.371094 175.445312 210.8125 175.378906 C 217.269531 174.480469 224.257812 172.96875 231.070312 171.929688 C 232.164062 171.765625 233.589844 173.054688 234.648438 171.261719 C 235.109375 173.957031 238.386719 170.550781 238.539062 170.742188 L 238.539062 172.292969 C 242.109375 171.097656 244.726562 172.398438 247.90625 173.847656 C 247.03125 176.640625 243.726562 177.40625 242.042969 178.964844 Z M 242.066406 178.996094 " fill-opacity="1" fill-rule="nonzero"/></g></svg>